<?xml version="1.0" standalone="no"?>
<!DOCTYPE svg PUBLIC "-//W3C//DTD SVG 20010904//EN"
 "http://www.w3.org/TR/2001/REC-SVG-20010904/DTD/svg10.dtd">
<svg version="1.0" xmlns="http://www.w3.org/2000/svg"
 width="960.000000pt" height="960.000000pt" viewBox="0 0 960.000000 960.000000"
 preserveAspectRatio="xMidYMid meet">
<metadata>
Created by potrace 1.11, written by Peter Selinger 2001-2013
</metadata>
<g transform="translate(0.000000,960.000000) scale(0.100000,-0.100000)"
fill="#000000" stroke="none">
<path d="M3695 6475 c-66 -23 -89 -59 -138 -217 -25 -79 -60 -195 -77 -258
-52 -188 -55 -195 -82 -194 -12 1 -36 5 -53 8 -124 28 -196 35 -357 40 -92 2
-172 -4 -253 -18 -56 -10 -195 -50 -232 -67 -23 -10 -45 -19 -49 -19 -15 0
-149 -81 -253 -153 -60 -42 -72 -46 -95 -37 -41 15 -117 14 -157 -2 -45 -19
-70 -70 -76 -152 -5 -57 -8 -64 -54 -109 -27 -26 -61 -65 -76 -85 -15 -20 -30
-39 -33 -42 -25 -22 -56 -132 -64 -225 -2 -27 -9 -71 -15 -98 -6 -26 -14 -64
-17 -84 -11 -72 -17 -78 -70 -77 -76 2 -75 2 -72 32 2 22 -1 28 -21 30 -37 6
-65 -5 -76 -30 l-10 -23 -447 1 -447 2 -23 -47 c-19 -40 -23 -63 -24 -176 l-2
-130 -36 -12 c-150 -51 -248 -132 -323 -266 -52 -94 -60 -135 -60 -312 0 -211
22 -301 96 -395 62 -78 102 -109 186 -140 l60 -22 1085 -2 c716 -2 1100 1
1130 8 25 5 101 10 170 11 l125 0 138 84 138 84 357 -1 358 0 74 -71 75 -71
142 3 c78 2 144 5 146 7 2 3 16 23 30 46 25 40 26 41 81 40 l56 -1 47 -92 c27
-51 50 -93 53 -93 3 0 28 36 55 79 27 44 52 78 55 76 3 -2 26 -42 50 -89 25
-47 47 -86 50 -86 4 0 44 72 95 171 5 10 12 19 15 19 3 -1 23 -39 44 -85 22
-47 42 -85 46 -85 6 0 79 121 93 154 8 19 8 19 21 0 7 -10 30 -49 50 -87 21
-37 41 -67 44 -67 4 1 29 39 57 85 27 47 52 85 55 85 3 -1 23 -39 44 -85 22
-47 42 -85 46 -85 4 0 31 36 60 80 l54 79 18 -29 c9 -16 29 -52 43 -80 14 -27
29 -50 33 -50 4 0 27 29 51 65 25 36 50 70 56 75 7 6 24 -15 50 -61 22 -38 43
-69 47 -69 6 0 49 53 114 139 9 12 16 6 39 -35 15 -27 36 -62 45 -77 l17 -29
53 72 53 71 23 -38 c13 -21 24 -44 24 -50 0 -7 5 -13 10 -13 6 0 10 -6 10 -14
0 -7 6 -18 13 -24 10 -8 26 7 67 63 63 85 60 85 112 -22 16 -35 33 -63 37 -63
4 0 29 34 56 75 27 41 52 75 55 75 3 0 23 -37 45 -81 40 -80 65 -114 65 -89 0
7 10 27 23 44 13 17 34 50 47 73 13 24 26 43 29 43 3 0 26 -39 50 -86 l44 -86
42 69 c74 118 65 116 110 28 22 -42 43 -79 47 -81 4 -3 31 31 61 75 l53 80 43
-79 c23 -44 44 -80 45 -80 2 0 29 38 60 85 31 47 58 85 61 85 2 0 23 -34 46
-75 24 -41 46 -75 50 -75 4 0 31 34 61 75 29 41 56 75 59 75 4 0 22 -30 40
-66 19 -36 37 -68 40 -70 3 -2 28 30 55 71 27 41 51 75 54 75 3 0 23 -40 46
-88 l41 -87 56 88 c31 48 59 87 61 87 3 0 17 -24 32 -52 15 -29 33 -65 41 -81
8 -15 18 -25 23 -22 4 3 32 36 61 75 30 38 56 70 59 70 3 0 22 -34 43 -75 21
-42 41 -74 46 -70 5 3 32 39 59 80 l50 75 29 -48 c17 -26 39 -62 50 -81 l20
-33 54 75 c30 42 58 76 62 76 4 1 11 -7 15 -17 15 -37 66 -122 72 -122 4 0 27
31 51 70 24 38 47 70 51 70 4 0 30 -34 59 -75 28 -41 53 -75 55 -75 2 0 20 34
40 75 20 41 39 75 43 75 3 0 40 -31 81 -70 41 -38 76 -68 77 -66 1 1 12 47 24
101 12 55 22 101 23 102 0 1 49 -11 109 -26 73 -19 107 -24 107 -16 0 6 -11
40 -26 74 -14 35 -24 65 -22 67 4 3 109 14 162 16 20 1 36 4 36 7 0 4 -22 39
-50 79 -27 40 -50 76 -50 80 0 4 16 14 36 21 20 7 58 23 86 35 l50 22 -76 63
-76 63 55 66 c30 36 55 70 55 74 0 4 -10 8 -22 9 -32 0 -143 11 -145 13 -1 1
10 33 26 72 15 38 31 79 35 91 8 25 3 25 -59 -2 -55 -23 -78 -28 -70 -15 8 13
20 57 41 153 4 19 2 27 -9 27 -7 0 -17 -3 -20 -6 -8 -8 -181 -83 -184 -80 -2
1 -12 49 -23 106 -11 57 -22 105 -24 107 -2 2 -32 -34 -67 -79 -35 -46 -69
-89 -75 -95 -12 -12 -24 11 -85 163 -11 29 -12 28 -57 -68 -26 -54 -49 -98
-52 -97 -3 0 -30 38 -60 85 -30 46 -58 83 -63 81 -5 -1 -24 -38 -43 -81 -19
-44 -36 -82 -39 -84 -6 -7 -29 23 -49 63 -9 17 -28 49 -44 72 l-28 42 -39 -89
c-21 -50 -41 -90 -44 -90 -4 0 -22 26 -41 58 -19 31 -37 59 -40 62 -3 3 -11
17 -19 33 -17 33 -29 34 -40 5 -5 -13 -19 -45 -32 -73 -23 -52 -26 -58 -28
-75 -3 -24 -20 -4 -70 80 -29 50 -57 90 -61 90 -5 0 -12 -10 -16 -22 -3 -13
-14 -41 -24 -63 -9 -22 -23 -53 -30 -70 -9 -21 -14 -26 -18 -15 -3 8 -10 20
-17 26 -6 6 -31 41 -56 78 -24 36 -47 66 -50 66 -3 0 -24 -36 -48 -80 -23 -44
-46 -82 -50 -84 -4 -3 -27 26 -51 65 -45 72 -56 81 -67 52 -4 -10 -21 -42 -39
-72 l-32 -54 -47 73 c-26 40 -49 79 -52 86 -10 27 -24 13 -65 -70 -23 -47 -45
-83 -49 -80 -4 2 -24 35 -45 72 -63 115 -55 114 -105 12 -24 -49 -47 -88 -51
-87 -4 1 -31 39 -61 85 l-54 84 -16 -36 c-10 -20 -24 -53 -33 -73 -38 -91 -33
-89 -78 -15 -23 37 -47 80 -55 95 -15 28 -32 32 -37 6 -7 -34 -59 -169 -66
-169 -4 0 -27 37 -52 83 -71 129 -69 128 -90 71 -10 -27 -24 -62 -31 -79 -7
-16 -18 -45 -25 -63 l-13 -33 -60 98 c-32 54 -61 100 -63 102 -1 2 -24 -41
-49 -94 l-47 -98 -41 64 c-23 35 -45 66 -49 67 -5 2 -8 10 -8 18 0 30 -20 11
-63 -61 l-44 -75 -42 70 c-22 38 -41 74 -41 80 0 27 -23 3 -72 -75 -29 -46
-55 -85 -58 -85 -3 0 -25 36 -49 79 l-45 79 -51 -75 c-29 -41 -56 -74 -61 -72
-10 3 -84 126 -84 140 0 25 -19 1 -58 -71 -24 -44 -45 -80 -47 -80 -2 0 -25
38 -52 85 -26 47 -51 85 -56 85 -4 0 -12 -10 -17 -22 -6 -13 -23 -43 -39 -68
-16 -25 -30 -51 -30 -57 -2 -29 -22 -9 -70 69 l-50 82 -19 -45 c-11 -24 -30
-68 -44 -98 l-24 -54 -60 96 c-59 96 -59 96 -69 68 -5 -16 -13 -33 -17 -37 -5
-4 -8 -13 -8 -19 0 -7 -12 -39 -26 -71 -24 -54 -26 -56 -37 -36 -32 58 -108
182 -111 182 -3 0 -21 -43 -41 -95 -21 -52 -40 -95 -44 -94 -3 0 -35 38 -71
85 -35 46 -68 84 -72 84 -5 0 -8 -8 -9 -17 0 -10 -6 -36 -13 -58 l-13 -40 -1
72 -1 73 35 16 c47 23 76 67 84 129 1 6 5 15 10 20 20 26 42 182 56 400 9 139
21 307 29 395 21 223 26 422 13 505 -3 22 -17 77 -31 122 -14 45 -28 95 -30
112 -3 16 -8 34 -11 39 -3 5 -8 24 -11 43 -3 19 -13 61 -21 94 -9 33 -20 79
-25 103 -13 64 -23 78 -63 80 -65 5 -150 -60 -162 -123 -5 -28 18 -132 43
-195 3 -8 7 -19 9 -25 1 -5 17 -50 34 -100 50 -142 52 -153 55 -358 3 -135 0
-178 -13 -215 l-16 -47 -9 40 c-13 50 -93 132 -161 164 -59 27 -193 62 -212
54 -16 -6 -15 -10 -19 123 -6 239 -37 440 -82 529 -27 52 -85 117 -119 131
-49 21 -124 24 -169 9z m141 -366 c7 -68 7 -181 3 -331 -2 -54 -7 -64 -33 -59
-5 1 -26 4 -48 7 -108 16 -108 14 -58 164 12 36 23 70 24 75 1 6 19 67 41 138
36 117 40 125 52 104 6 -13 15 -57 19 -98z"/>
</g>
</svg>
